#!OML:ASF F:\VICON\USERDATA\INSTALL\rory3\rory3.ASF
:FULLY-SPECIFIED
:DEGREES
1596
root 9.83955 17.7858 -9.06692 -535.067 94.279 188.214
lowerback 9.41193 2.60999 1.7578
upperback 0.441398 3.69987 0.372634
thorax -4.72657 1.80309 -1.08984
lowerneck -16.1982 -6.31672 -10.7594
upperneck 30.1528 -8.00005 8.4919
head 13.7463 -3.37505 3.94345
rclavicle 3.02712e-014 3.97569e-016
rhumerus -29.2559 -2.24549 -87.1995
rradius 42.7218
rwrist 0.0894286
rhand -17.9096 10.8761
rfingers 7.12502
rthumb 8.35758 -18.9385
lclavicle 3.02712e-014 3.97569e-016
lhumerus -40.1161 2.33563 84.9757
lradius 29.5439
lwrist -9.53377
lhand -12.7344 23.9579
lfingers 7.12502
lthumb 13.3492 53.5103
rfemur 4.22004 5.80062 29.6716
rtibia 22.4728
rfoot -16.3991 3.3837
rtoes 17.6879
lfemur -19.4316 -7.75348 -14.6768
ltibia 14.639
lfoot -5.83233 -14.6999
ltoes -11.7016
1597
root 9.92214 17.7772 -9.08054 -535.073 94.6152 188.338
lowerback 9.55425 2.5322 1.73747
upperback 0.47136 3.59667 0.355194
thorax -4.77791 1.75199 -1.08977
lowerneck -16.161 -6.36214 -10.7898
upperneck 30.2071 -8.09544 8.58278
head 13.7805 -3.40889 3.97147
rclavicle -2.92213e-014 -3.57812e-015
rhumerus -29.2472 -2.51502 -87.1527
rradius 42.6761
rwrist 0.376486
rhand -17.9886 10.7951
rfingers 7.12502
rthumb 8.2813 -19.0226
lclavicle -2.92213e-014 -3.57812e-015
lhumerus -40.0744 2.11465 84.9444
lradius 29.8286
lwrist -9.21811
lhand -12.8242 23.6681
lfingers 7.12502
lthumb 13.2627 53.2261
rfemur 4.51231 6.07359 29.6509
rtibia 22.8089
rfoot -16.6029 3.18807
rtoes 17.197
lfemur -19.1634 -8.36696 -14.8253
ltibia 14.0831
lfoot -4.75442 -16.1407
ltoes -9.46886
1598
root 10.0071 17.7654 -9.09273 -535.335 95.031 188.196
lowerback 9.63138 2.46075 1.7075
upperback 0.530881 3.49964 0.345971
thorax -4.76274 1.70554 -1.07199
lowerneck -16.2095 -6.39982 -10.8081
upperneck 30.2472 -8.17298 8.65818
head 13.8236 -3.43507 3.99206
rclavicle 1.2424e-016 -1.98785e-015
rhumerus -29.1998 -2.54771 -87.188
rradius 42.5676
rwrist 0.49911
rhand -17.9411 10.3964
rfingers 7.12502
rthumb 8.32721 -19.4195
lclavicle 1.2424e-016 -1.98785e-015
lhumerus -40.0213 1.95228 84.8581
lradius 30.1122
lwrist -8.90742
lhand -13.0113 23.588
lfingers 7.12502
lthumb 13.0823 53.1577
rfemur 4.82138 6.30901 29.5803
rtibia 23.0876
rfoot -16.6601 3.36278
rtoes 18.1061
lfemur -18.9508 -8.81016 -15.002
ltibia 13.8981
lfoot -3.86046 -17.3213
ltoes -7.91841
1599
root 10.0872 17.7538 -9.10813 -535.918 95.5525 187.651
lowerback 9.76908 2.43177 1.75428
upperback 0.510047 3.46809 0.321013
thorax -4.85813 1.68704 -1.12743
lowerneck -16.1396 -6.41343 -10.7564
upperneck 30.2149 -8.2111 8.63323
head 13.7948 -3.45247 3.96546
rclavicle 6.90404e-014 -7.95139e-016
rhumerus -29.1945 -2.61351 -87.1894
rradius 42.362
rwrist 0.459932
rhand -16.9921 10.4632
rfingers 7.12502
rthumb 9.24294 -19.3142
lclavicle 6.90404e-014 -7.95139e-016
lhumerus -40.0015 1.57039 84.8768
lradius 30.43
lwrist -8.23909
lhand -13.3338 23.7674
lfingers 7.12502
lthumb 12.7714 53.3568
rfemur 5.03355 6.66163 29.5311
rtibia 23.3637
rfoot -16.7421 3.56966
rtoes 19.1746
lfemur -18.8825 -8.73616 -15.2318
ltibia 14.0096
lfoot -2.91566 -18.6671
ltoes -7.02723
1600
root 10.1657 17.7391 -9.1226 -538.697 96.1041 184.874
lowerback 9.94416 2.43538 2.04995
upperback 0.452544 3.51317 0.366679
thorax -5.00037 1.70034 -1.26183
lowerneck -16.0827 -6.45009 -10.8339
upperneck 30.2505 -8.27932 8.72154
head 13.816 -3.48106 4.00505
rclavicle 4.65467e-014 7.55382e-015
rhumerus -29.2952 -2.75391 -87.1069
rradius 42.1716
rwrist 0.319776
rhand -16.3403 10.7707
rfingers 7.12502
rthumb 9.87188 -18.9778
lclavicle 4.65467e-014 7.55382e-015
lhumerus -39.9533 1.3687 84.8379
lradius 30.6805
lwrist -7.85615
lhand -13.2088 23.8865
lfingers 7.12502
lthumb 12.8919 53.4683
rfemur 5.24155 7.2591 29.8569
rtibia 23.6371
rfoot -16.8873 3.31912
rtoes 18.2183
lfemur -18.8566 -8.41474 -15.2041
ltibia 14.2739
lfoot -1.93398 -20.0293
ltoes -7.10079
1601
root 10.2518 17.723 -9.13496 -540.886 96.6681 182.667
lowerback 9.92253 2.44691 2.29224
upperback 0.454027 3.55977 0.447278
thorax -4.9758 1.71923 -1.31852
lowerneck -16.0614 -6.49139 -10.9563
upperneck 30.2971 -8.33667 8.80522
head 13.851 -3.51019 4.05225
rclavicle -5.32619e-014 5.56597e-015
rhumerus -29.4214 -2.92863 -86.9925
rradius 42.0242
rwrist 0.298607
rhand -16.7273 10.627
rfingers 7.12502
rthumb 9.49847 -19.139
lclavicle -5.32619e-014 5.56597e-015
lhumerus -39.7811 1.58145 84.6164
lradius 30.7405
lwrist -8.11381
lhand -13.1424 23.7829
lfingers 7.12502
lthumb 12.9559 53.3607
rfemur 5.42068 7.48106 30.0871
rtibia 23.9054
rfoot -16.9902 3.27491
rtoes 16.1253
lfemur -18.7945 -8.47164 -15.1087
ltibia 14.6132
lfoot -1.03847 -20.9805
ltoes -6.77947
1602
root 10.3462 17.7103 -9.1465 -542.958 97.2775 180.802
lowerback 9.98313 2.42684 2.51591
upperback 0.56472 3.56487 0.536719
thorax -4.88593 1.72112 -1.35089
lowerneck -15.952 -6.49175 -10.9572
upperneck 30.1955 -8.35444 8.82255
head 13.786 -3.52153 4.05366
rclavicle 1.43001e-014 -3.97569e-016
rhumerus -29.5277 -3.23815 -86.9203
rradius 41.8321
rwrist 0.818917
rhand -17.0697 10.2727
rfingers 7.12502
rthumb 9.16807 -19.508
lclavicle 1.43001e-014 -3.97569e-016
lhumerus -39.5727 1.80959 84.3597
lradius 30.7636
lwrist -8.22142
lhand -13.188 23.8445
lfingers 7.12502
lthumb 12.912 53.425
rfemur 5.88245 7.52411 30.2869
rtibia 24.1413
rfoot -17.0676 3.47308
rtoes 15.1266
lfemur -18.4286 -9.1626 -14.9104
ltibia 15.0279
lfoot -0.0985623 -21.5757
ltoes -4.46633
1603
root 10.4423 17.6989 -9.15592 -544.12 97.9646 179.986
lowerback 10.1825 2.46424 2.68883
upperback 0.696238 3.64048 0.537023
thorax -4.84614 1.7576 -1.46365
lowerneck -15.8571 -6.53502 -10.8433
upperneck 30.1539 -8.46094 8.81216
head 13.7539 -3.55966 4.01026
rclavicle -5.07646e-014 -5.96354e-015
rhumerus -29.6202 -3.65011 -86.8912
rradius 41.5333
rwrist 1.13846
rhand -16.9918 10.0749
rfingers 7.12502
rthumb 9.24324 -19.7025
lclavicle -5.07646e-014 -5.96354e-015
lhumerus -39.4213 1.6264 84.1855
lradius 30.9239
lwrist -7.8415
lhand -13.2485 24.0687
lfingers 7.12502
lthumb 12.8537 53.6529
rfemur 6.49825 7.87871 30.4653
rtibia 24.4082
rfoot -17.1104 3.62785
rtoes 14.8951
lfemur -17.8342 -10.1577 -14.7314
ltibia 15.399
lfoot 1.34126 -22.0372
ltoes -0.293146
1604
root 10.5397 17.6901 -9.1659 -544.507 98.7824 179.761
lowerback 10.1402 2.61349 2.74515
upperback 0.815946 3.84388 0.559743
thorax -4.68661 1.862 -1.49271
lowerneck -15.8413 -6.65158 -10.7705
upperneck 30.1556 -8.64528 8.76378
head 13.7684 -3.63908 3.94448
rclavicle -4.40805e-014 -2.38542e-015
rhumerus -29.6391 -3.8982 -86.7436
rradius 41.2112
rwrist 0.941564
rhand -17.0837 10.0092
rfingers 7.12502
rthumb 9.15457 -19.7721
lclavicle -4.40805e-014 -2.38542e-015
lhumerus -39.2154 1.40477 84.154
lradius 31.1082
lwrist -7.61653
lhand -13.5627 23.985
lfingers 7.12502
lthumb 12.5507 53.5881
rfemur 6.89842 8.24147 30.5008
rtibia 24.7006
rfoot -17.0414 3.93207
rtoes 14.3221
lfemur -17.3674 -11.0041 -14.6293
ltibia 15.742
lfoot 2.64559 -22.5152
ltoes 2.47615
1605
root 10.6383 17.684 -9.17542 -544.855 99.626 179.485
lowerback 9.98031 2.72839 2.75172
upperback 0.92587 3.99657 0.676405
thorax -4.48411 1.94407 -1.3828
lowerneck -15.8011 -6.6915 -10.922
upperneck 30.1052 -8.68163 8.81529
head 13.7548 -3.66941 3.98339
rclavicle -1.0635e-014 -3.97569e-015
rhumerus -29.6945 -4.08337 -86.4851
rradius 40.9163
rwrist 0.911948
rhand -17.0658 10.0981
rfingers 7.12502
rthumb 9.17184 -19.6824
lclavicle -1.0635e-014 -3.97569e-015
lhumerus -39.069 1.37251 84.1853
lradius 31.3867
lwrist -7.47671
lhand -13.7603 23.9112
lfingers 7.12502
lthumb 12.3602 53.5258
rfemur 7.16103 8.36964 30.4514
rtibia 25.0236
rfoot -16.9208 4.49178
rtoes 13.77
lfemur -16.979 -11.3377 -14.6276
ltibia 16.0833
lfoot 3.88396 -23.5244
ltoes 4.1033
1606
root 10.7375 17.6815 -9.18586 -543.899 100.565 180.371
lowerback 9.69961 2.88253 2.62068
upperback 0.936094 4.17519 0.662333
thorax -4.31793 2.03751 -1.33046
lowerneck -15.6375 -6.68705 -10.9852
upperneck 30.08 -8.69686 8.89378
head 13.7184 -3.67774 4.02579
rclavicle -5.95112e-015 7.55382e-015
rhumerus -29.8716 -4.4902 -86.2536
rradius 40.5462
rwrist 1.29146
rhand -16.7317 10.5042
rfingers 7.12502
rthumb 9.4942 -19.262
lclavicle -5.95112e-015 7.55382e-015
lhumerus -39.1538 1.51677 83.9158
lradius 31.8702
lwrist -7.83256
lhand -12.8079 24.304
lfingers 7.12502
lthumb 13.2784 53.861
rfemur 7.20506 8.47678 30.0917
rtibia 25.4345
rfoot -16.8584 5.19354
rtoes 13.3867
lfemur -16.759 -11.5106 -14.8418
ltibia 16.3923
lfoot 5.30147 -24.7147
ltoes 9.25114
1607
root 10.8393 17.6888 -9.19582 -542.884 101.432 181.284
lowerback 9.42116 3.03294 2.53572
upperback 0.864552 4.34764 0.495072
thorax -4.22372 2.12302 -1.46299
lowerneck -15.4013 -6.68572 -10.6398
upperneck 30.1011 -8.80399 8.84737
head 13.6661 -3.69396 3.93386
rclavicle -1.52816e-015 -6.75868e-015
rhumerus -30.1774 -4.88509 -86.2055
rradius 40.2094
rwrist 1.43558
rhand -16.6557 10.6548
rfingers 7.12502
rthumb 9.56755 -19.108
lclavicle -1.52816e-015 -6.75868e-015
lhumerus -39.1441 1.72682 83.3012
lradius 31.8829
lwrist -8.66411
lhand -11.9061 23.6727
lfingers 7.12502
lthumb 14.1474 53.171
rfemur 7.17759 8.53192 29.683
rtibia 25.942
rfoot -16.8039 5.72256
rtoes 12.8025
lfemur -16.6097 -11.6352 -15.1326
ltibia 16.6656
lfoot 7.02845 -25.75
ltoes 17.7071
1608
root 10.938 17.7066 -9.20287 -541.958 102.247 182.166
lowerback 9.34852 3.1651 2.40117
upperback 0.74901 4.49751 0.301964
thorax -4.29221 2.19457 -1.6059
lowerneck -15.3158 -6.72331 -10.1374
upperneck 30.2862 -8.96106 8.65654
head 13.7055 -3.72584 3.75027
rclavicle -2.52643e-014 -3.57812e-015
rhumerus -30.5112 -5.23064 -86.2496
rradius 39.903
rwrist 1.33554
rhand -16.8248 10.2269
rfingers 7.12502
rthumb 9.40443 -19.5433
lclavicle -2.52643e-014 -3.57812e-015
lhumerus -38.8118 1.91535 82.7343
lradius 31.26
lwrist -8.6739
lhand -12.689 23.166
lfingers 7.12502
lthumb 13.393 52.7155
rfemur 7.15465 8.81227 29.3619
rtibia 26.5723
rfoot -16.6076 5.97841
rtoes 12.269
lfemur -16.4019 -11.6066 -15.4627
ltibia 16.8863
lfoot 7.87024 -25.8203
ltoes 21.4649
1609
root 11.0264 17.7239 -9.19966 -540.719 103.193 183.427
lowerback 9.44286 3.38211 1.91562
upperback 0.651769 4.73267 0.205194
thorax -4.46737 2.31442 -1.47611
lowerneck -15.3325 -6.81841 -9.88374
upperneck 30.5104 -9.14595 8.53331
head 13.8064 -3.7871 3.63079
rclavicle -3.27373e-015 3.97569e-016
rhumerus -30.7575 -5.87078 -86.0504
rradius 39.4385
rwrist 1.5078
rhand -16.6981 9.76537
rfingers 7.12502
rthumb 9.52668 -19.9993
lclavicle -3.27373e-015 3.97569e-016
lhumerus -38.5527 1.67319 82.6163
lradius 30.9478
lwrist -8.02327
lhand -14.3063 24.038
lfingers 7.12502
lthumb 11.8338 53.6836
rfemur 7.04703 9.43486 29.063
rtibia 27.3909
rfoot -16.2486 6.10266
rtoes 12.1489
lfemur -16.0725 -11.4784 -15.8104
ltibia 17.0048
lfoot 6.45354 -24.5525
ltoes 16.8594
1610
root 11.1156 17.7334 -9.19441 -539.56 104.071 184.717
lowerback 9.53888 3.5996 1.39096
upperback 0.636623 4.96317 0.113161
thorax -4.56475 2.43595 -1.3174
lowerneck -15.2682 -6.95738 -9.93151
upperneck 30.5984 -9.40794 8.71661
head 13.8781 -3.88152 3.67136
rclavicle 3.17434e-015 -9.93923e-015
rhumerus -30.9208 -6.63176 -85.781
rradius 38.825
rwrist 1.66733
rhand -16.6376 9.96065
rfingers 7.12502
rthumb 9.58505 -19.8013
lclavicle 3.17434e-015 -9.93923e-015
lhumerus -38.3857 1.45449 82.52
lradius 30.8745
lwrist -7.76066
lhand -14.995 24.7269
lfingers 7.12502
lthumb 11.1696 54.4096
rfemur 6.9028 9.7947 28.6791
rtibia 28.4326
rfoot -15.941 6.27936
rtoes 11.409
lfemur -15.5139 -11.5237 -16.1465
ltibia 16.9952
lfoot 3.95076 -22.3063
ltoes 8.5252
